<svg width="512" height="512" xmlns="http://www.w3.org/2000/svg">
 <!-- Created with Method Draw - http://github.com/duopixel/Method-Draw/ -->

 <g>
  <title>background</title>
  <rect fill="none" id="canvas_background" height="514" width="514" y="-1" x="-1"/>
 </g>
 <g>
  <title>Layer 1</title>
  <g id="svg_2">
   <path id="svg_9" d="m334.202026,295.548065l69.259644,39.987091l54.900024,-95.089691c13.248108,-23.847092 21.984497,-57.594849 16.619629,-98.245102c-5.211182,-40.182098 -30.016907,-85.999107 -80.459717,-114.51643c-49.967224,-29.439177 -102.038757,-28.00744 -139.426285,-12.43478c-37.896896,15.673058 -62.777084,40.12854 -76.816559,63.518753l-54.887756,95.068367l69.238434,39.974838l54.887756,-95.068405c2.649597,-5.443047 18.497635,-22.352974 37.182999,-29.27005c19.170898,-7.003662 39.564087,-9.412956 69.806274,7.469872c29.715454,17.747124 37.841736,36.608742 41.351379,56.707024c3.373413,19.65271 -3.380676,41.8414 -6.757019,46.836517l-54.887695,95.068405l-0.011047,-0.006378l-0.000061,-0.000031zm20.660095,124.164001c0,0 18.82312,-32.6026 40.603027,-70.326538l-69.259644,-39.987091c-21.798889,37.756714 -40.608765,70.336426 -40.608765,70.336426l69.297424,39.995697l-0.032043,-0.018494zm-280.076401,-161.688995l69.238419,39.974823c0,0 18.816544,-32.591156 40.608765,-70.336456l-69.238419,-39.974808c-21.798859,37.756714 -40.608765,70.336441 -40.608765,70.336441z" stroke-width="1.5" stroke="#000000" fill="#1162b2"/>
   <ellipse ry="185.758743" rx="185.758743" id="svg_1" cy="321.910259" cx="221.173214" stroke-width="1.5" stroke="#000000" fill="#1473d1"/>
   <text transform="matrix(2.07552, 0, 0, 2.07552, -57.6337, -513.608)" font-style="normal" font-weight="bold" xml:space="preserve" text-anchor="start" font-family="Helvetica, Arial, sans-serif" font-size="100" id="svg_10" y="431.392443" x="100.164729" stroke="#000000" fill="#ffffff">A</text>
  </g>
 </g>
</svg>